<svg id="レイヤー_1" data-name="レイヤー 1" xmlns="http://www.w3.org/2000/svg" width="64" height="64" viewBox="0 0 64 64"><defs><style>.cls-1{fill:#ff8000;}.cls-2{fill:none;stroke:#ff8000;stroke-linecap:round;stroke-miterlimit:10;stroke-width:2px;}</style></defs><title>kobushi-icon</title><rect class="cls-1" x="24.81997" y="23.70986" width="6.81666" height="16.35999" rx="1" transform="translate(-13.50327 40.39136) rotate(-60.00002)"/><rect class="cls-1" x="30.09064" y="15.94411" width="6.81666" height="19.08665" rx="1" transform="translate(-5.32327 41.75469) rotate(-60.00002)"/><rect class="cls-1" x="34.18064" y="8.86003" width="6.81666" height="19.08665" rx="1" transform="translate(2.85672 41.75469) rotate(-60.00002)"/><rect class="cls-1" x="38.27063" y="1.77594" width="6.81666" height="19.08665" rx="1" transform="translate(11.03672 41.75468) rotate(-60.00002)"/><rect class="cls-1" x="44.53278" y="18.61047" width="14.99665" height="6.81666" rx="1" transform="translate(6.94673 56.06968) rotate(-60.00002)"/><path class="cls-1" d="M2.31893,42.96605H27.59558a0,0,0,0,1,0,0v5.45333a0,0,0,0,1,0,0H2.31893a1.99,1.99,0,0,1-1.99-1.99V44.95605a1.99,1.99,0,0,1,1.99-1.99Z" transform="translate(-32.58993 34.93804) rotate(-60.00002)"/><path class="cls-2" d="M15.645,56.88579s8.18-6.81666,16.36,0,16.36,0,16.36,0"/></svg>